<svg width="26" height="28" viewBox="0 0 26 28" fill="none" xmlns="http://www.w3.org/2000/svg">
<path d="M25 6.00012H19.954C19.401 6.00012 18.954 5.55212 18.954 5.00012C18.954 4.44812 19.401 4.00012 19.954 4.00012H25C25.552 4.00012 26 4.44812 26 5.00012C26 5.55212 25.552 6.00012 25 6.00012Z" fill="white"/>
<path d="M16.344 6.00012H1C0.448 6.00012 0 5.55212 0 5.00012C0 4.44812 0.448 4.00012 1 4.00012H16.344C16.896 4.00012 17.344 4.44812 17.344 5.00012C17.344 5.55212 16.896 6.00012 16.344 6.00012Z" fill="white"/>
<path d="M25 15.0001H9.60095C9.04895 15.0001 8.60095 14.5521 8.60095 14.0001C8.60095 13.4481 9.04895 13.0001 9.60095 13.0001H25C25.552 13.0001 26 13.4481 26 14.0001C26 14.5521 25.552 15.0001 25 15.0001Z" fill="white"/>
<path d="M5.923 15.0001H1C0.448 15.0001 0 14.5521 0 14.0001C0 13.4481 0.448 13.0001 1 13.0001H5.923C6.475 13.0001 6.923 13.4481 6.923 14.0001C6.923 14.5521 6.475 15.0001 5.923 15.0001Z" fill="white"/>
<path d="M25 24.0001H16.344C15.792 24.0001 15.344 23.5521 15.344 23.0001C15.344 22.4481 15.792 22.0001 16.344 22.0001H25C25.552 22.0001 26 22.4481 26 23.0001C26 23.5521 25.552 24.0001 25 24.0001Z" fill="white"/>
<path d="M13.074 24.0001H1C0.448 24.0001 0 23.5521 0 23.0001C0 22.4481 0.448 22.0001 1 22.0001H13.074C13.626 22.0001 14.074 22.4481 14.074 23.0001C14.074 23.5521 13.626 24.0001 13.074 24.0001Z" fill="white"/>
<path d="M19.613 9.06512C19.061 9.06512 18.613 8.61712 18.613 8.06512V1.93512C18.613 1.38312 19.061 0.93512 19.613 0.93512C20.165 0.93512 20.613 1.38312 20.613 1.93512V8.06512C20.613 8.61712 20.165 9.06512 19.613 9.06512Z" fill="white"/>
<path d="M5.92297 18.0651C5.37097 18.0651 4.92297 17.6171 4.92297 17.0651V10.9351C4.92297 10.3831 5.37097 9.93512 5.92297 9.93512C6.47497 9.93512 6.92297 10.3831 6.92297 10.9351V17.0651C6.92297 17.6171 6.47497 18.0651 5.92297 18.0651Z" fill="white"/>
<path d="M16.344 27.0651C15.792 27.0651 15.344 26.6171 15.344 26.0651V19.9351C15.344 19.3831 15.792 18.9351 16.344 18.9351C16.896 18.9351 17.344 19.3831 17.344 19.9351V26.0651C17.344 26.6171 16.896 27.0651 16.344 27.0651Z" fill="white"/>
</svg>
