<svg width="31" height="30" viewBox="0 0 31 30" fill="none" xmlns="http://www.w3.org/2000/svg">
<path fill-rule="evenodd" clip-rule="evenodd" d="M15.4814 0.0952148C7.24984 0.0952148 0.57666 6.7684 0.57666 15C0.57666 23.2316 7.24984 29.9048 15.4814 29.9048C23.7137 29.9048 30.3862 23.2316 30.3862 15C30.3862 6.7684 23.7137 0.0952148 15.4814 0.0952148ZM10.8141 8.54093C12.5615 8.00532 15.1189 8.26053 14.9677 9.69831C14.8829 10.5057 14.0304 10.8232 12.4826 11.0764C10.9354 11.3296 9.61366 11.1547 8.9415 10.8371C7.74103 10.271 9.06612 9.07653 10.8141 8.54093ZM13.0706 23.449C9.18279 23.516 5.60856 21.9821 7.29823 19.1881C8.55173 17.1146 11.7607 15.6118 14.7304 15.2433C17.7001 14.8747 20.4298 15.6397 20.7261 18.1009C21.1603 21.713 16.9583 23.3814 13.0706 23.449ZM20.7931 13.9467C18.4962 13.9467 16.1059 13.6789 15.8255 12.3081C15.4331 10.3884 17.6192 9.40731 20.278 9.55248C22.8951 9.69632 25.6758 10.855 25.8243 12.1132C25.9615 13.2759 23.1927 13.9467 20.7931 13.9467Z" fill="white"/>
</svg>
