<svg width="31" height="30" viewBox="0 0 31 30" fill="none" xmlns="http://www.w3.org/2000/svg">
<path fill-rule="evenodd" clip-rule="evenodd" d="M15.4814 0.0952148C7.25 0.0952148 0.57666 6.76831 0.57666 15C0.57666 23.2316 7.25 29.9047 15.4814 29.9047C23.7131 29.9047 30.3862 23.2316 30.3862 15C30.3862 6.76831 23.7131 0.0952148 15.4814 0.0952148ZM10.5486 23.2794H7.19238V12.0076H10.5486V23.2794ZM8.84961 10.3508C7.73047 10.3508 6.86035 9.43921 6.86035 8.31995C6.86035 7.20105 7.73047 6.28979 8.84961 6.28979C9.96826 6.28979 10.8799 7.20105 10.8799 8.31995C10.8799 9.43921 9.96826 10.3508 8.84961 10.3508ZM23.7676 23.2794H20.4526V17.1883C20.4316 16.5458 20.2036 15.9758 19.8208 15.5668C19.438 15.1572 18.8984 14.9085 18.2563 14.9085C17.6138 14.9085 17.0232 15.1572 16.5879 15.5668C16.1536 15.9758 15.8738 16.5458 15.8528 17.1883V23.2794H12.5374V12.0076H15.8528V13.5829C16.5576 12.5468 17.7173 11.8837 19.0435 11.8837H19.9553C22.0688 11.8837 23.7676 13.6246 23.7676 15.6959V23.2794Z" fill="white"/>
</svg>
