<svg width="190" height="62" viewBox="0 0 190 62" fill="none" xmlns="http://www.w3.org/2000/svg">
<path d="M81.0056 49.795C80.8683 46.2017 78.3283 44.623 74.9856 44.623C72.011 44.623 69.059 46.087 69.059 49.4057C69.059 52.4044 71.691 53.1577 74.3003 53.731C76.9083 54.3044 79.5176 54.6924 79.5176 56.935C79.5176 59.2937 77.3443 59.911 75.3749 59.911C72.903 59.911 70.615 58.7203 70.615 55.975H68.555C68.555 59.9563 71.6443 61.7417 75.3069 61.7417C78.2816 61.7417 81.6923 60.3457 81.6923 56.867C81.6923 53.6617 79.0829 52.747 76.4736 52.1524C73.8416 51.5564 71.2323 51.2604 71.2323 49.2457C71.2323 47.1164 73.0643 46.4537 74.8949 46.4537C77.1376 46.4537 78.6936 47.4604 78.9456 49.795L81.0056 49.795ZM83.2029 53.1817C83.2029 57.623 85.8349 61.7417 91.0296 61.7417C96.2256 61.7417 98.8589 57.623 98.8589 53.1817C98.8589 48.7417 96.2256 44.623 91.0296 44.623C85.8349 44.623 83.2029 48.7417 83.2029 53.1817ZM85.3776 53.1817C85.3776 49.8857 87.0482 46.4537 91.0296 46.4537C95.0122 46.4537 96.6829 49.8857 96.6829 53.1817C96.6829 56.4777 95.0122 59.911 91.0296 59.911C87.0482 59.911 85.3776 56.4777 85.3776 53.1817ZM101.308 61.3537H103.48V53.8684H110.988V52.0377H103.48V46.843H112.04V45.011H101.308V61.3537ZM117.946 61.3537H120.119V46.843H125.567V45.011H112.498V46.843H117.946V61.3537ZM146.304 45.011H144.128L140.811 58.6057H140.764L137.147 45.011H134.789L131.128 58.6057H131.084L127.877 45.011H125.657L129.847 61.3537H132.112L135.888 47.6204H135.935L139.665 61.3537H141.931L146.304 45.011ZM145.661 61.3537H147.904L149.736 56.4324H156.648L158.432 61.3537H160.836L154.451 45.011H152.047L145.661 61.3537ZM153.193 46.9804H153.237L155.961 54.6004H150.423L153.193 46.9804ZM164.407 52.5417V46.843H169.809C171.844 46.843 172.715 48.0324 172.715 49.635C172.715 52.015 170.976 52.5417 168.937 52.5417H164.407ZM162.232 61.3537H164.407V54.3724H169.716C171.821 54.3724 172.211 55.7217 172.44 57.323C172.76 58.927 172.417 60.6897 173.035 61.3537H175.461C174.545 60.231 174.639 58.4457 174.5 56.8443C174.339 55.2417 173.951 53.8457 172.051 53.4804V53.4337C174.019 52.883 174.888 51.2604 174.888 49.291C174.888 46.6817 172.989 45.011 169.923 45.011H162.232V61.3537ZM177.704 61.3537H189.056V59.5217H179.877V53.8684H188.369V52.0377H179.877V46.843H188.987V45.011H177.704V61.3537Z" fill="black"/>
<path d="M0.223267 0.117432L0.253933 61.0346H62.4578V0.117432H0.223267Z" fill="#2B2B2A"/>
<path d="M4.96406 31.6663C5.90273 31.6663 6.66006 32.4236 6.66006 33.3316C6.66006 34.2423 5.90273 34.9956 4.96406 34.9956C4.0254 34.9956 3.26807 34.2423 3.26807 33.3316C3.26807 32.4236 4.0254 31.6663 4.96406 31.6663Z" fill="#EE751E"/>
<path d="M9.02071 31.6663C9.93004 31.6663 10.7167 32.4236 10.7167 33.3316C10.7167 34.2423 9.95938 34.9956 9.02071 34.9956C8.08338 34.9956 7.32605 34.2423 7.32605 33.3316C7.32605 32.4236 8.08338 31.6663 9.02071 31.6663Z" fill="#EE751E"/>
<path d="M13.048 31.6663C13.9867 31.6663 14.7427 32.4236 14.7427 33.3316C14.7427 34.2423 13.9867 34.9956 13.048 34.9956C12.14 34.9956 11.3827 34.2423 11.3827 33.3316C11.3827 32.4236 12.14 31.6663 13.048 31.6663Z" fill="#EE751E"/>
<path d="M16.4699 33.5437C17.4086 33.5437 18.1646 34.301 18.1646 35.209C18.1646 36.1184 17.4086 36.873 16.4699 36.873C15.5606 36.873 14.8046 36.1184 14.8046 35.209C14.8046 34.301 15.5606 33.5437 16.4699 33.5437Z" fill="#EE751E"/>
<path d="M16.4699 45.1699C17.4086 45.1699 18.1646 45.9273 18.1646 46.8353C18.1646 47.7459 17.4086 48.4992 16.4699 48.4992C15.5606 48.4992 14.8046 47.7459 14.8046 46.8353C14.8046 45.9273 15.5606 45.1699 16.4699 45.1699Z" fill="#EE751E"/>
<path d="M17.6496 37.239C18.5883 37.239 19.3456 37.995 19.3456 38.9043C19.3456 39.811 18.5883 40.5683 17.6496 40.5683C16.7416 40.5683 15.9843 39.811 15.9843 38.9043C15.9843 37.995 16.7416 37.239 17.6496 37.239Z" fill="#EE751E"/>
<path d="M17.6496 48.8652C18.5883 48.8652 19.3456 49.6212 19.3456 50.5306C19.3456 51.4372 18.5883 52.1946 17.6496 52.1946C16.7416 52.1946 15.9843 51.4372 15.9843 50.5306C15.9843 49.6212 16.7416 48.8652 17.6496 48.8652Z" fill="#EE751E"/>
<path d="M16.4699 41.1726C17.4086 41.1726 18.1646 41.9299 18.1646 42.8379C18.1646 43.7486 17.4086 44.4739 16.4699 44.4739C15.5606 44.4739 14.8046 43.7486 14.8046 42.8379C14.8046 41.9299 15.5606 41.1726 16.4699 41.1726Z" fill="#EE751E"/>
<path d="M16.4699 52.8003C17.4086 52.8003 18.1646 53.5283 18.1646 54.4656C18.1646 55.375 17.4086 56.1003 16.4699 56.1003C15.5606 56.1003 14.8046 55.375 14.8046 54.4656C14.8046 53.5283 15.5606 52.8003 16.4699 52.8003Z" fill="#EE751E"/>
<path d="M4.96406 35.5112C5.90273 35.5112 6.66006 36.2392 6.66006 37.1779C6.66006 38.0872 5.90273 38.8152 4.96406 38.8152C4.0254 38.8152 3.26807 38.0872 3.26807 37.1779C3.26807 36.2686 4.0254 35.5112 4.96406 35.5112Z" fill="#EE751E"/>
<path d="M4.96406 39.3589C5.90273 39.3589 6.66006 40.0842 6.66006 40.9935C6.66006 41.9002 5.90273 42.6589 4.96406 42.6589C4.0254 42.6589 3.26807 41.9002 3.26807 40.9935C3.26807 40.0842 4.0254 39.3589 4.96406 39.3589Z" fill="#EE751E"/>
<path d="M4.96406 43.1726C5.90273 43.1726 6.66006 43.9273 6.66006 44.8379C6.66006 45.7459 5.90273 46.5019 4.96406 46.5019C4.0254 46.5019 3.26807 45.7459 3.26807 44.8379C3.26807 43.9273 4.0254 43.1726 4.96406 43.1726Z" fill="#EE751E"/>
<path d="M4.96406 47.0178C5.90273 47.0178 6.66006 47.7752 6.66006 48.6832C6.66006 49.5898 5.90273 50.3178 4.96406 50.3178C4.0254 50.3178 3.26807 49.5898 3.26807 48.6832C3.26807 47.7752 4.0254 47.0178 4.96406 47.0178Z" fill="#EE751E"/>
<path d="M4.96406 50.8625C5.90273 50.8625 6.66006 51.5905 6.66006 52.4972C6.66006 53.4039 5.90273 54.1625 4.96406 54.1625C4.05606 54.1625 3.26807 53.4039 3.26807 52.4972C3.26807 51.5905 4.0254 50.8625 4.96406 50.8625Z" fill="#EE751E"/>
<path d="M4.96406 54.6777C5.90273 54.6777 6.66006 55.4337 6.66006 56.3431C6.66006 57.2524 5.90273 58.0057 4.96406 58.0057C4.05606 58.0057 3.26807 57.2524 3.26807 56.3431C3.26807 55.4337 4.05606 54.6777 4.96406 54.6777Z" fill="#EE751E"/>
<path d="M8.99018 54.6777C9.89951 54.6777 10.6555 55.4337 10.6555 56.3431C10.6555 57.2524 9.89951 58.0057 8.99018 58.0057C8.05152 58.0057 7.29552 57.2524 7.29552 56.3431C7.29552 55.4337 8.05152 54.6777 8.99018 54.6777Z" fill="#EE751E"/>
<path d="M8.99018 43.2625C9.89951 43.2625 10.6555 43.9918 10.6555 44.9278C10.6555 45.8384 9.89951 46.5638 8.99018 46.5638C8.05152 46.5638 7.29552 45.8384 7.29552 44.9278C7.29552 43.9918 8.05152 43.2625 8.99018 43.2625Z" fill="#EE751E"/>
<path d="M12.9875 54.6777C13.9262 54.6777 14.6835 55.4337 14.6835 56.3431C14.6835 57.2524 13.9262 58.0057 12.9875 58.0057C12.0488 58.0057 11.2915 57.2524 11.2915 56.3431C11.2915 55.4337 12.0488 54.6777 12.9875 54.6777Z" fill="#EE751E"/>
<path d="M12.9875 43.2625C13.9262 43.2625 14.6835 43.9918 14.6835 44.9278C14.6835 45.8384 13.9262 46.5638 12.9875 46.5638C12.0488 46.5638 11.2915 45.8384 11.2915 44.9278C11.2915 43.9918 12.0488 43.2625 12.9875 43.2625Z" fill="#EE751E"/>
<path d="M28.7921 39.4487H23.4628L20.8175 57.9953H26.0868L27.3855 49.7433L29.9708 58.0033H34.0588L36.7734 49.7526L37.9241 58.0033H43.3428L40.6908 39.4487L35.3574 39.438L32.0641 49.7526" fill="#EE751E"/>
<path d="M46.4745 31.8225C53.5891 31.8225 59.4638 37.9212 59.4638 44.8865C59.4638 51.8785 54.6798 57.9758 47.5638 57.9758L44.5732 55.3465L47.5638 52.2251C51.4398 52.2251 53.5891 48.6998 53.5891 44.8865C53.5891 41.1305 50.4411 37.6332 46.5958 37.5732H23.3839L19.9639 34.6358L23.3839 31.8225L46.4745 31.8225Z" fill="#EE751E"/>
<path d="M74.1384 32.4017H77.1837C78.3317 32.4017 78.8837 32.9097 78.8837 33.8363C78.8837 35.051 78.0011 35.3377 76.9851 35.3377H74.1384V32.4017ZM69.2891 39.0843H78.2211C80.9997 39.0843 83.7331 37.4537 83.7331 34.3003C83.7331 31.9843 82.4104 30.859 80.9997 30.375C82.1677 29.735 82.9397 28.875 82.9397 27.2843C82.9397 25.675 82.0571 23.339 77.9131 23.339H69.2891V39.0843ZM74.1384 27.0857H76.6984C77.6917 27.0857 78.3544 27.3737 78.3544 28.1683C78.3544 29.1843 77.7144 29.471 76.6984 29.471H74.1384V27.0857ZM100.397 23.339H95.5477V31.919C95.5477 33.5297 95.5477 35.5377 93.2517 35.5377C90.8904 35.5377 90.8904 33.5297 90.8904 31.919V23.339H86.0411V33.0003C86.0411 37.3657 88.421 39.4603 93.2304 39.4603C98.0384 39.4603 100.397 37.3657 100.397 33.0003V23.339ZM102.456 33.7937C102.5 38.8203 107.592 39.4603 109.381 39.4603C112.888 39.4603 116.658 38.1377 116.658 34.0377C116.658 31.1457 114.453 30.1083 112.226 29.491C109.998 28.8737 107.746 28.631 107.66 27.5057C107.66 26.623 108.74 26.4457 109.401 26.4457C109.888 26.4457 110.441 26.5563 110.837 26.843C111.234 27.1083 111.5 27.5057 111.41 28.1003H115.997C115.864 24.2644 112.844 22.9644 109.424 22.9644C106.181 22.9644 103.073 24.5297 103.073 28.167C103.073 31.3443 105.917 32.0283 108.409 32.7337C111.124 33.507 111.808 33.727 111.808 34.543C111.808 35.7123 110.593 35.9777 109.798 35.9777C108.894 35.9777 107.834 35.779 107.481 34.8297C107.372 34.543 107.305 34.191 107.305 33.7937H102.456ZM118.953 39.0843H123.802V23.339H118.953V39.0843ZM126.941 39.0843H131.525V30.4857H131.569L136.402 39.0843H141.12V23.339H136.534V31.763H136.492L131.901 23.339H126.941V39.0843ZM144.304 39.0843H157.578V35.051H149.153V33.0857H156.586V29.339H149.153V27.3737H157.336V23.339H144.304V39.0843ZM159.432 33.7937C159.476 38.8203 164.569 39.4603 166.356 39.4603C169.864 39.4603 173.634 38.1377 173.634 34.0377C173.634 31.1457 171.429 30.1083 169.202 29.491C166.974 28.8737 164.722 28.631 164.634 27.5057C164.634 26.623 165.717 26.4457 166.38 26.4457C166.864 26.4457 167.416 26.5563 167.813 26.843C168.21 27.1083 168.476 27.5057 168.388 28.1003H172.972C172.84 24.2644 169.82 22.9644 166.401 22.9644C163.158 22.9644 160.05 24.5297 160.05 28.167C160.05 31.3443 162.893 32.0283 165.386 32.7337C168.1 33.507 168.784 33.727 168.784 34.543C168.784 35.7123 167.57 35.9777 166.777 35.9777C165.87 35.9777 164.812 35.779 164.458 34.8297C164.348 34.543 164.281 34.191 164.281 33.7937H159.432ZM174.998 33.7937C175.041 38.8203 180.134 39.4603 181.921 39.4603C185.429 39.4603 189.199 38.1377 189.199 34.0377C189.199 31.1457 186.995 30.1083 184.767 29.491C182.539 28.8737 180.287 28.631 180.199 27.5057C180.199 26.623 181.281 26.4457 181.943 26.4457C182.429 26.4457 182.981 26.5563 183.379 26.843C183.777 27.1083 184.041 27.5057 183.953 28.1003H188.537C188.405 24.2644 185.386 22.9644 181.966 22.9644C178.722 22.9644 175.614 24.5297 175.614 28.167C175.614 31.3443 178.458 32.0283 180.95 32.7337C183.666 33.507 184.349 33.727 184.349 34.543C184.349 35.7123 183.135 35.9777 182.341 35.9777C181.437 35.9777 180.377 35.779 180.024 34.8297C179.913 34.543 179.846 34.191 179.846 33.7937H174.998Z" fill="white"/>
</svg>
