<svg width="31" height="30" viewBox="0 0 31 30" fill="none" xmlns="http://www.w3.org/2000/svg">
<path fill-rule="evenodd" clip-rule="evenodd" d="M18.9744 15.0005C18.9744 15.9544 18.5882 16.8175 17.9698 17.4426C17.3506 18.067 16.4987 18.4534 15.5676 18.4534H15.5226C13.6596 18.4534 12.1152 16.9082 12.1152 15.0005C12.1152 14.0692 12.5017 13.2174 13.1201 12.5982C13.7391 11.9791 14.5909 11.5933 15.5226 11.5933H15.5676C17.4304 11.5933 18.9744 13.1378 18.9744 15.0005Z" fill="white"/>
<path fill-rule="evenodd" clip-rule="evenodd" d="M19.8833 7.14096H11.2061C9.25342 7.14096 7.66309 8.73121 7.66309 10.6847V19.3161C7.66309 21.2689 9.25342 22.8592 11.2061 22.8592H19.8833C21.8369 22.8592 23.4263 21.2689 23.4263 19.3161V10.6847C23.4263 8.73121 21.8369 7.14096 19.8833 7.14096ZM19.2129 18.6631C18.2705 19.5998 16.9761 20.1791 15.5674 20.1791H15.5223C12.7057 20.1791 10.3888 17.8624 10.3888 15.0001C10.3888 13.5921 10.9681 12.2968 11.8998 11.3549C12.8302 10.4123 14.1136 9.82165 15.5223 9.82165H15.5674C18.3837 9.82165 20.7462 12.1835 20.7462 15.0001C20.7462 16.4312 20.1558 17.7258 19.2129 18.6631ZM21.4226 10.6788C21.2236 10.8776 20.9506 11.0022 20.6554 11.0022C20.3379 11.0022 20.0648 10.8776 19.8719 10.6788C19.6793 10.4805 19.5652 10.2074 19.5652 9.91246C19.5652 9.61748 19.6793 9.34437 19.8719 9.14551C20.0648 8.94665 20.3379 8.82202 20.6554 8.82202C21.2461 8.82202 21.746 9.32184 21.746 9.91246C21.746 10.2074 21.6212 10.4805 21.4226 10.6788ZM19.8833 7.14096H11.2061C9.25342 7.14096 7.66309 8.73121 7.66309 10.6847V19.3161C7.66309 21.2689 9.25342 22.8592 11.2061 22.8592H19.8833C21.8369 22.8592 23.4263 21.2689 23.4263 19.3161V10.6847C23.4263 8.73121 21.8369 7.14096 19.8833 7.14096ZM19.2129 18.6631C18.2705 19.5998 16.9761 20.1791 15.5674 20.1791H15.5223C12.7057 20.1791 10.3888 17.8624 10.3888 15.0001C10.3888 13.5921 10.9681 12.2968 11.8998 11.3549C12.8302 10.4123 14.1136 9.82165 15.5223 9.82165H15.5674C18.3837 9.82165 20.7462 12.1835 20.7462 15.0001C20.7462 16.4312 20.1558 17.7258 19.2129 18.6631ZM21.4226 10.6788C21.2236 10.8776 20.9506 11.0022 20.6554 11.0022C20.3379 11.0022 20.0648 10.8776 19.8719 10.6788C19.6793 10.4805 19.5652 10.2074 19.5652 9.91246C19.5652 9.61748 19.6793 9.34437 19.8719 9.14551C20.0648 8.94665 20.3379 8.82202 20.6554 8.82202C21.2461 8.82202 21.746 9.32184 21.746 9.91246C21.746 10.2074 21.6212 10.4805 21.4226 10.6788ZM19.8833 7.14096H11.2061C9.25342 7.14096 7.66309 8.73121 7.66309 10.6847V19.3161C7.66309 21.2689 9.25342 22.8592 11.2061 22.8592H19.8833C21.8369 22.8592 23.4263 21.2689 23.4263 19.3161V10.6847C23.4263 8.73121 21.8369 7.14096 19.8833 7.14096ZM19.2129 18.6631C18.2705 19.5998 16.9761 20.1791 15.5674 20.1791H15.5223C12.7057 20.1791 10.3888 17.8624 10.3888 15.0001C10.3888 13.5921 10.9681 12.2968 11.8998 11.3549C12.8302 10.4123 14.1136 9.82165 15.5223 9.82165H15.5674C18.3837 9.82165 20.7462 12.1835 20.7462 15.0001C20.7462 16.4312 20.1558 17.7258 19.2129 18.6631ZM21.4226 10.6788C21.2236 10.8776 20.9506 11.0022 20.6554 11.0022C20.3379 11.0022 20.0648 10.8776 19.8719 10.6788C19.6793 10.4805 19.5652 10.2074 19.5652 9.91246C19.5652 9.61748 19.6793 9.34437 19.8719 9.14551C20.0648 8.94665 20.3379 8.82202 20.6554 8.82202C21.2461 8.82202 21.746 9.32184 21.746 9.91246C21.746 10.2074 21.6212 10.4805 21.4226 10.6788ZM19.8833 7.14096H11.2061C9.25342 7.14096 7.66309 8.73121 7.66309 10.6847V19.3161C7.66309 21.2689 9.25342 22.8592 11.2061 22.8592H19.8833C21.8369 22.8592 23.4263 21.2689 23.4263 19.3161V10.6847C23.4263 8.73121 21.8369 7.14096 19.8833 7.14096ZM19.2129 18.6631C18.2705 19.5998 16.9761 20.1791 15.5674 20.1791H15.5223C12.7057 20.1791 10.3888 17.8624 10.3888 15.0001C10.3888 13.5921 10.9681 12.2968 11.8998 11.3549C12.8302 10.4123 14.1136 9.82165 15.5223 9.82165H15.5674C18.3837 9.82165 20.7462 12.1835 20.7462 15.0001C20.7462 16.4312 20.1558 17.7258 19.2129 18.6631ZM21.4226 10.6788C21.2236 10.8776 20.9506 11.0022 20.6554 11.0022C20.3379 11.0022 20.0648 10.8776 19.8719 10.6788C19.6793 10.4805 19.5652 10.2074 19.5652 9.91246C19.5652 9.61748 19.6793 9.34437 19.8719 9.14551C20.0648 8.94665 20.3379 8.82202 20.6554 8.82202C21.2461 8.82202 21.746 9.32184 21.746 9.91246C21.746 10.2074 21.6212 10.4805 21.4226 10.6788ZM19.8833 7.14096H11.2061C9.25342 7.14096 7.66309 8.73121 7.66309 10.6847V19.3161C7.66309 21.2689 9.25342 22.8592 11.2061 22.8592H19.8833C21.8369 22.8592 23.4263 21.2689 23.4263 19.3161V10.6847C23.4263 8.73121 21.8369 7.14096 19.8833 7.14096ZM19.2129 18.6631C18.2705 19.5998 16.9761 20.1791 15.5674 20.1791H15.5223C12.7057 20.1791 10.3888 17.8624 10.3888 15.0001C10.3888 13.5921 10.9681 12.2968 11.8998 11.3549C12.8302 10.4123 14.1136 9.82165 15.5223 9.82165H15.5674C18.3837 9.82165 20.7462 12.1835 20.7462 15.0001C20.7462 16.4312 20.1558 17.7258 19.2129 18.6631ZM21.4226 10.6788C21.2236 10.8776 20.9506 11.0022 20.6554 11.0022C20.3379 11.0022 20.0648 10.8776 19.8719 10.6788C19.6793 10.4805 19.5652 10.2074 19.5652 9.91246C19.5652 9.61748 19.6793 9.34437 19.8719 9.14551C20.0648 8.94665 20.3379 8.82202 20.6554 8.82202C21.2461 8.82202 21.746 9.32184 21.746 9.91246C21.746 10.2074 21.6212 10.4805 21.4226 10.6788ZM19.8833 7.14096H11.2061C9.25342 7.14096 7.66309 8.73121 7.66309 10.6847V19.3161C7.66309 21.2689 9.25342 22.8592 11.2061 22.8592H19.8833C21.8369 22.8592 23.4263 21.2689 23.4263 19.3161V10.6847C23.4263 8.73121 21.8369 7.14096 19.8833 7.14096ZM19.2129 18.6631C18.2705 19.5998 16.9761 20.1791 15.5674 20.1791H15.5223C12.7057 20.1791 10.3888 17.8624 10.3888 15.0001C10.3888 13.5921 10.9681 12.2968 11.8998 11.3549C12.8302 10.4123 14.1136 9.82165 15.5223 9.82165H15.5674C18.3837 9.82165 20.7462 12.1835 20.7462 15.0001C20.7462 16.4312 20.1558 17.7258 19.2129 18.6631ZM21.4226 10.6788C21.2236 10.8776 20.9506 11.0022 20.6554 11.0022C20.3379 11.0022 20.0648 10.8776 19.8719 10.6788C19.6793 10.4805 19.5652 10.2074 19.5652 9.91246C19.5652 9.61748 19.6793 9.34437 19.8719 9.14551C20.0648 8.94665 20.3379 8.82202 20.6554 8.82202C21.2461 8.82202 21.746 9.32184 21.746 9.91246C21.746 10.2074 21.6212 10.4805 21.4226 10.6788ZM15.5448 0.0952148C7.31323 0.0952148 0.640137 6.76842 0.640137 15.0001C0.640137 23.2317 7.31323 29.9049 15.5448 29.9049C23.7762 29.9049 30.4496 23.2317 30.4496 15.0001C30.4496 6.76842 23.7762 0.0952148 15.5448 0.0952148ZM25.0619 19.3611C25.0619 22.1777 22.7449 24.4945 19.9283 24.4945H11.1611C8.3446 24.4945 6.02759 22.1777 6.02759 19.3611V10.639C6.02759 7.8224 8.3446 5.50564 11.1611 5.50564H19.9283C22.7449 5.50564 25.0619 7.8224 25.0619 10.639V19.3611ZM19.8833 7.14096H11.2061C9.25342 7.14096 7.66309 8.73121 7.66309 10.6847V19.3161C7.66309 21.2689 9.25342 22.8592 11.2061 22.8592H19.8833C21.8369 22.8592 23.4263 21.2689 23.4263 19.3161V10.6847C23.4263 8.73121 21.8369 7.14096 19.8833 7.14096ZM19.2129 18.6631C18.2705 19.5998 16.9761 20.1791 15.5674 20.1791H15.5223C12.7057 20.1791 10.3888 17.8624 10.3888 15.0001C10.3888 13.5921 10.9681 12.2968 11.8998 11.3549C12.8302 10.4123 14.1136 9.82165 15.5223 9.82165H15.5674C18.3837 9.82165 20.7462 12.1835 20.7462 15.0001C20.7462 16.4312 20.1558 17.7258 19.2129 18.6631ZM21.4226 10.6788C21.2236 10.8776 20.9506 11.0022 20.6554 11.0022C20.3379 11.0022 20.0648 10.8776 19.8719 10.6788C19.6793 10.4805 19.5652 10.2074 19.5652 9.91246C19.5652 9.61748 19.6793 9.34437 19.8719 9.14551C20.0648 8.94665 20.3379 8.82202 20.6554 8.82202C21.2461 8.82202 21.746 9.32184 21.746 9.91246C21.746 10.2074 21.6212 10.4805 21.4226 10.6788ZM19.8833 7.14096H11.2061C9.25342 7.14096 7.66309 8.73121 7.66309 10.6847V19.3161C7.66309 21.2689 9.25342 22.8592 11.2061 22.8592H19.8833C21.8369 22.8592 23.4263 21.2689 23.4263 19.3161V10.6847C23.4263 8.73121 21.8369 7.14096 19.8833 7.14096ZM19.2129 18.6631C18.2705 19.5998 16.9761 20.1791 15.5674 20.1791H15.5223C12.7057 20.1791 10.3888 17.8624 10.3888 15.0001C10.3888 13.5921 10.9681 12.2968 11.8998 11.3549C12.8302 10.4123 14.1136 9.82165 15.5223 9.82165H15.5674C18.3837 9.82165 20.7462 12.1835 20.7462 15.0001C20.7462 16.4312 20.1558 17.7258 19.2129 18.6631ZM21.4226 10.6788C21.2236 10.8776 20.9506 11.0022 20.6554 11.0022C20.3379 11.0022 20.0648 10.8776 19.8719 10.6788C19.6793 10.4805 19.5652 10.2074 19.5652 9.91246C19.5652 9.61748 19.6793 9.34437 19.8719 9.14551C20.0648 8.94665 20.3379 8.82202 20.6554 8.82202C21.2461 8.82202 21.746 9.32184 21.746 9.91246C21.746 10.2074 21.6212 10.4805 21.4226 10.6788ZM19.8833 7.14096H11.2061C9.25342 7.14096 7.66309 8.73121 7.66309 10.6847V19.3161C7.66309 21.2689 9.25342 22.8592 11.2061 22.8592H19.8833C21.8369 22.8592 23.4263 21.2689 23.4263 19.3161V10.6847C23.4263 8.73121 21.8369 7.14096 19.8833 7.14096ZM19.2129 18.6631C18.2705 19.5998 16.9761 20.1791 15.5674 20.1791H15.5223C12.7057 20.1791 10.3888 17.8624 10.3888 15.0001C10.3888 13.5921 10.9681 12.2968 11.8998 11.3549C12.8302 10.4123 14.1136 9.82165 15.5223 9.82165H15.5674C18.3837 9.82165 20.7462 12.1835 20.7462 15.0001C20.7462 16.4312 20.1558 17.7258 19.2129 18.6631ZM21.4226 10.6788C21.2236 10.8776 20.9506 11.0022 20.6554 11.0022C20.3379 11.0022 20.0648 10.8776 19.8719 10.6788C19.6793 10.4805 19.5652 10.2074 19.5652 9.91246C19.5652 9.61748 19.6793 9.34437 19.8719 9.14551C20.0648 8.94665 20.3379 8.82202 20.6554 8.82202C21.2461 8.82202 21.746 9.32184 21.746 9.91246C21.746 10.2074 21.6212 10.4805 21.4226 10.6788ZM19.8833 7.14096H11.2061C9.25342 7.14096 7.66309 8.73121 7.66309 10.6847V19.3161C7.66309 21.2689 9.25342 22.8592 11.2061 22.8592H19.8833C21.8369 22.8592 23.4263 21.2689 23.4263 19.3161V10.6847C23.4263 8.73121 21.8369 7.14096 19.8833 7.14096ZM19.2129 18.6631C18.2705 19.5998 16.9761 20.1791 15.5674 20.1791H15.5223C12.7057 20.1791 10.3888 17.8624 10.3888 15.0001C10.3888 13.5921 10.9681 12.2968 11.8998 11.3549C12.8302 10.4123 14.1136 9.82165 15.5223 9.82165H15.5674C18.3837 9.82165 20.7462 12.1835 20.7462 15.0001C20.7462 16.4312 20.1558 17.7258 19.2129 18.6631ZM21.4226 10.6788C21.2236 10.8776 20.9506 11.0022 20.6554 11.0022C20.3379 11.0022 20.0648 10.8776 19.8719 10.6788C19.6793 10.4805 19.5652 10.2074 19.5652 9.91246C19.5652 9.61748 19.6793 9.34437 19.8719 9.14551C20.0648 8.94665 20.3379 8.82202 20.6554 8.82202C21.2461 8.82202 21.746 9.32184 21.746 9.91246C21.746 10.2074 21.6212 10.4805 21.4226 10.6788ZM19.8833 7.14096H11.2061C9.25342 7.14096 7.66309 8.73121 7.66309 10.6847V19.3161C7.66309 21.2689 9.25342 22.8592 11.2061 22.8592H19.8833C21.8369 22.8592 23.4263 21.2689 23.4263 19.3161V10.6847C23.4263 8.73121 21.8369 7.14096 19.8833 7.14096ZM19.2129 18.6631C18.2705 19.5998 16.9761 20.1791 15.5674 20.1791H15.5223C12.7057 20.1791 10.3888 17.8624 10.3888 15.0001C10.3888 13.5921 10.9681 12.2968 11.8998 11.3549C12.8302 10.4123 14.1136 9.82165 15.5223 9.82165H15.5674C18.3837 9.82165 20.7462 12.1835 20.7462 15.0001C20.7462 16.4312 20.1558 17.7258 19.2129 18.6631ZM21.4226 10.6788C21.2236 10.8776 20.9506 11.0022 20.6554 11.0022C20.3379 11.0022 20.0648 10.8776 19.8719 10.6788C19.6793 10.4805 19.5652 10.2074 19.5652 9.91246C19.5652 9.61748 19.6793 9.34437 19.8719 9.14551C20.0648 8.94665 20.3379 8.82202 20.6554 8.82202C21.2461 8.82202 21.746 9.32184 21.746 9.91246C21.746 10.2074 21.6212 10.4805 21.4226 10.6788Z" fill="white"/>
</svg>
