<svg width="31" height="30" viewBox="0 0 31 30" fill="none" xmlns="http://www.w3.org/2000/svg">
<path fill-rule="evenodd" clip-rule="evenodd" d="M15.5449 0.0952148C7.31332 0.0952148 0.640137 6.7684 0.640137 15C0.640137 23.2316 7.31332 29.9048 15.5449 29.9048C23.7772 29.9048 30.4497 23.2316 30.4497 15C30.4497 6.7684 23.7772 0.0952148 15.5449 0.0952148ZM17.4421 22.7968L14.2212 17.3519V22.7968H10.0046V5.18147H14.2212V16.1242L17.0682 10.8391H21.9258L20.2533 13.4018C19.9153 13.9533 19.613 14.3981 19.3638 14.7541C19.1324 15.0921 18.9369 15.3765 18.7407 15.6079C18.563 15.8571 18.3847 16.0526 18.2249 16.2131C18.0645 16.3735 17.8869 16.5332 17.6734 16.6937C17.9399 16.9422 18.154 17.1384 18.2959 17.2982C18.4563 17.4407 18.6339 17.619 18.7943 17.8146C18.9541 18.0101 19.1682 18.2594 19.3989 18.5795C19.6302 18.8639 19.9511 19.2915 20.3422 19.843L22.531 22.7968H17.4421Z" fill="white"/>
</svg>
