<svg width="212" height="50" viewBox="0 0 212 50" fill="none" xmlns="http://www.w3.org/2000/svg">
<path d="M176.518 15.4475L191.865 0.100586H212.005L196.659 15.4475H176.518Z" fill="white"/>
<path d="M176.518 49.9783L191.864 34.6313H212.005L196.659 49.9783H176.518Z" fill="white"/>
<path d="M212.005 32.7129L196.659 17.366H176.518L191.864 32.7129H212.005Z" fill="white"/>
<path d="M117.788 37.8616H116.656V43.715H120.628V42.8308H117.788V37.8616ZM126.044 41.1921C126.044 41.5811 125.988 41.8843 125.877 42.1038C125.765 42.3232 125.588 42.4964 125.347 42.6233C125.105 42.7507 124.811 42.8139 124.465 42.8139C124.149 42.8139 123.872 42.747 123.635 42.6128C123.397 42.479 123.226 42.3086 123.122 42.102C123.017 41.8949 122.964 41.6173 122.964 41.2682V37.8616H121.829V41.3809C121.829 41.8724 121.934 42.3008 122.143 42.6654C122.353 43.0296 122.657 43.3086 123.055 43.501C123.453 43.6939 123.922 43.7901 124.465 43.7901C125.327 43.7901 125.995 43.5785 126.468 43.1556C126.939 42.7323 127.175 42.1272 127.175 41.3392V37.8616H126.044V41.1921ZM129.538 26.8622H124.349V27.0977C124.349 27.5036 123.985 27.8742 123.632 27.9979C121.725 28.6681 118.813 28.6764 118.784 28.6764C118.755 28.6764 115.843 28.6681 113.935 27.9979C113.586 27.8751 113.226 27.5091 113.22 27.1068C113.22 27.1041 113.219 27.1009 113.219 27.0977V26.8622H113.191V16.9458H121.442V12.4718H113.191V6.28906H108.024V26.8622H108.029V28.4853C108.029 30.4511 109.658 31.858 112.615 32.4467C116.107 33.1425 118.583 33.1503 118.784 33.1503C118.985 33.1503 121.46 33.1425 124.952 32.4467C127.909 31.858 129.538 30.4511 129.538 28.4853L129.538 26.8622ZM113.207 42.2486C112.821 42.6251 112.327 42.8139 111.726 42.8139C111.33 42.8139 110.975 42.7287 110.66 42.5587C110.346 42.3883 110.1 42.1478 109.925 41.8376C109.749 41.5275 109.661 41.1784 109.661 40.7904C109.661 40.3991 109.746 40.0491 109.916 39.7408C110.087 39.432 110.33 39.192 110.647 39.0197C110.964 38.8484 111.321 38.7623 111.718 38.7623C112.115 38.7623 112.472 38.8475 112.789 39.0179C113.106 39.1883 113.352 39.4288 113.526 39.7408C113.701 40.0523 113.788 40.4019 113.788 40.7904C113.788 41.385 113.595 41.8711 113.207 42.2486ZM113.363 38.1608C112.878 37.9111 112.333 37.786 111.726 37.786C111.095 37.786 110.537 37.9166 110.051 38.1782C109.564 38.4388 109.183 38.8053 108.907 39.2777C108.63 39.7495 108.492 40.2539 108.492 40.7904C108.492 41.3461 108.63 41.8541 108.907 42.3131C109.183 42.7731 109.569 43.1341 110.065 43.3966C110.561 43.6591 111.112 43.7901 111.718 43.7901C112.333 43.7901 112.885 43.6609 113.376 43.403C113.866 43.1446 114.251 42.7809 114.531 42.3131C114.813 41.8454 114.953 41.3374 114.953 40.7904C114.953 40.2287 114.809 39.7129 114.521 39.2419C114.234 38.7714 113.847 38.4109 113.363 38.1608ZM84.188 18.7599V18.5245C84.188 18.1186 84.6997 17.748 85.1945 17.6243C87.8763 16.954 91.9696 16.9458 92.0103 16.9458C92.0516 16.9458 96.1444 16.954 98.8262 17.6243C99.321 17.748 99.8327 18.1186 99.8327 18.5245V18.7599V18.9954C99.8327 19.4013 99.321 19.7719 98.8262 19.8956C96.1444 20.5658 92.0516 20.5741 92.0103 20.5741H84.188V18.7599ZM105.001 28.4853V26.8622H99.8327V27.0977C99.8327 27.5036 99.321 27.8742 98.8262 27.9979C96.1448 28.6681 92.0511 28.6764 92.0103 28.6764C91.9691 28.6764 87.8767 28.6681 85.1949 27.9979C84.6997 27.8742 84.188 27.5036 84.188 27.0977V26.8622V25.0481H92.0103C92.211 25.0481 96.9566 25.0398 100.434 24.3444C103.379 23.7557 105.001 22.3488 105.001 20.3831V18.7599V17.1368C105.001 15.1706 103.379 13.7642 100.434 13.1755C96.9566 12.4796 92.211 12.4718 92.0103 12.4718C91.8101 12.4718 87.064 12.4796 83.5869 13.1755C80.6422 13.7642 79.0204 15.1706 79.0204 17.1368V18.7599V26.8622V28.4853C79.0204 30.4511 80.6422 31.858 83.5869 32.4467C87.064 33.1425 91.8097 33.1503 92.0103 33.1503C92.2105 33.1503 96.9566 33.1425 100.434 32.4467C103.379 31.858 105.001 30.4511 105.001 28.4853ZM105.736 40.3584C105.175 40.1018 104.852 39.9456 104.768 39.8892C104.47 39.7023 104.32 39.498 104.32 39.2777C104.32 39.093 104.4 38.946 104.561 38.8356C104.722 38.7252 104.944 38.6702 105.229 38.6702C105.698 38.6702 106.236 38.853 106.842 39.219V38.213C106.315 37.9285 105.766 37.786 105.196 37.786C104.595 37.786 104.112 37.9322 103.746 38.2235C103.38 38.5158 103.197 38.9075 103.197 39.3991C103.197 39.7678 103.311 40.0917 103.539 40.3712C103.767 40.6506 104.111 40.8948 104.571 41.1046C104.96 41.292 105.277 41.4523 105.523 41.5861C105.819 41.757 105.967 41.9773 105.967 42.2486C105.967 42.4465 105.882 42.6059 105.711 42.7259C105.541 42.8464 105.317 42.9064 105.041 42.9064C104.488 42.9064 103.898 42.6462 103.273 42.1272V43.2413C103.608 43.4424 103.91 43.5844 104.18 43.6669C104.45 43.7493 104.771 43.7901 105.145 43.7901C105.721 43.7901 106.19 43.6357 106.551 43.327C106.913 43.0187 107.094 42.6128 107.094 42.1102C107.094 41.7222 106.988 41.3896 106.775 41.1129C106.563 40.8362 106.217 40.5847 105.736 40.3584ZM128.637 38.7453H130.715V43.715H131.846V38.7453H133.924V37.8616H128.637V38.7453ZM97.4812 40.3584C96.9195 40.1018 96.597 39.9456 96.5132 39.8892C96.2145 39.7023 96.0647 39.498 96.0647 39.2777C96.0647 39.093 96.1448 38.946 96.3056 38.8356C96.4664 38.7252 96.6891 38.6702 96.974 38.6702C97.4431 38.6702 97.981 38.853 98.5871 39.219V38.213C98.0593 37.9285 97.5105 37.786 96.9406 37.786C96.34 37.786 95.8567 37.9322 95.4906 38.2235C95.1246 38.5158 94.9418 38.9075 94.9418 39.3991C94.9418 39.7678 95.0554 40.0917 95.2836 40.3712C95.5113 40.6506 95.8553 40.8948 96.3162 41.1046C96.7047 41.292 97.0217 41.4523 97.2672 41.5861C97.5636 41.757 97.7116 41.9773 97.7116 42.2486C97.7116 42.4465 97.6259 42.6059 97.456 42.7259C97.2856 42.8464 97.062 42.9064 96.7857 42.9064C96.2323 42.9064 95.6432 42.6462 95.0174 42.1272V43.2413C95.3523 43.4424 95.6546 43.5844 95.9245 43.6669C96.1939 43.7493 96.5159 43.7901 96.8902 43.7901C97.4656 43.7901 97.9342 43.6357 98.2962 43.327C98.6576 43.0187 98.8386 42.6128 98.8386 42.1102C98.8386 41.7222 98.7323 41.3896 98.5202 41.1129C98.3081 40.8362 97.9617 40.5847 97.4812 40.3584ZM157.256 41.1129C157.044 40.8362 156.697 40.5847 156.217 40.3584C155.655 40.1018 155.333 39.9456 155.249 39.8892C154.95 39.7023 154.8 39.498 154.8 39.2777C154.8 39.093 154.881 38.946 155.042 38.8356C155.202 38.7252 155.425 38.6702 155.71 38.6702C156.179 38.6702 156.717 38.853 157.323 39.219V38.213C156.796 37.9285 156.246 37.786 155.676 37.786C155.076 37.786 154.592 37.9322 154.226 38.2235C153.861 38.5158 153.678 38.9075 153.678 39.3991C153.678 39.7678 153.792 40.0917 154.019 40.3712C154.247 40.6506 154.591 40.8948 155.052 41.1046C155.44 41.292 155.757 41.4523 156.003 41.5861C156.299 41.757 156.448 41.9773 156.448 42.2486C156.448 42.4465 156.362 42.6059 156.192 42.7259C156.021 42.8464 155.798 42.9064 155.521 42.9064C154.968 42.9064 154.379 42.6462 153.753 42.1272V43.2413C154.088 43.4424 154.391 43.5844 154.661 43.6669C154.93 43.7493 155.252 43.7901 155.626 43.7901C156.202 43.7901 156.67 43.6357 157.032 43.327C157.394 43.0187 157.574 42.6128 157.574 42.1102C157.574 41.7222 157.468 41.3896 157.256 41.1129ZM152.172 26.8622V27.0977C152.172 27.5036 151.66 27.8742 151.165 27.9979C148.484 28.6681 144.391 28.6764 144.349 28.6764C144.309 28.6764 140.216 28.6681 137.534 27.9979C137.039 27.8742 136.527 27.5036 136.527 27.0977V26.8622V26.6267C136.527 26.2209 137.039 25.8502 137.534 25.7265C140.216 25.0563 144.309 25.0481 144.349 25.0481H152.172V26.8622ZM157.34 18.7599V17.1368C157.34 15.1706 155.718 13.7642 152.773 13.1755C149.296 12.4796 144.55 12.4718 144.35 12.4718C144.149 12.4718 139.404 12.4796 135.926 13.1755C132.981 13.7642 131.359 15.1706 131.359 17.1368V18.7599H136.527V18.5245C136.527 18.1186 137.039 17.748 137.534 17.6243C140.215 16.954 144.309 16.9458 144.35 16.9458C144.391 16.9458 148.483 16.954 151.165 17.6243C151.66 17.748 152.172 18.1186 152.172 18.5245V18.7599V20.5741H144.35C144.15 20.5741 139.404 20.5819 135.926 21.2778C132.981 21.8664 131.359 23.2733 131.359 25.2391V26.8622V28.4853C131.359 30.4511 132.981 31.858 135.926 32.4467C139.404 33.1425 144.149 33.1503 144.349 33.1503C144.541 33.1503 148.869 33.1425 152.286 32.5378H157.34V18.7599ZM135.452 43.715H136.583V37.8616H135.452V43.715ZM143.024 42.2486C142.637 42.6251 142.143 42.8139 141.543 42.8139C141.146 42.8139 140.791 42.7287 140.476 42.5587C140.162 42.3883 139.917 42.1478 139.741 41.8376C139.565 41.5275 139.477 41.1784 139.477 40.7904C139.477 40.3991 139.562 40.0491 139.732 39.7408C139.903 39.432 140.147 39.192 140.464 39.0197C140.781 38.8484 141.137 38.7623 141.534 38.7623C141.93 38.7623 142.288 38.8475 142.605 39.0179C142.921 39.1883 143.167 39.4288 143.342 39.7408C143.516 40.0523 143.604 40.4019 143.604 40.7904C143.604 41.385 143.411 41.8711 143.024 42.2486ZM143.179 38.1608C142.694 37.9111 142.149 37.786 141.543 37.786C140.911 37.786 140.353 37.9166 139.867 38.1782C139.38 38.4388 138.999 38.8053 138.723 39.2777C138.446 39.7495 138.308 40.2539 138.308 40.7904C138.308 41.3461 138.446 41.8541 138.723 42.3131C138.999 42.7731 139.386 43.1341 139.881 43.3966C140.377 43.6591 140.928 43.7901 141.534 43.7901C142.149 43.7901 142.701 43.6609 143.191 43.403C143.681 43.1446 144.067 42.7809 144.348 42.3131C144.629 41.8454 144.769 41.3374 144.769 40.7904C144.769 40.2287 144.625 39.7129 144.337 39.2419C144.05 38.7714 143.664 38.4109 143.179 38.1608ZM150.944 41.9471L147.465 37.8616H146.472V43.715H147.579V39.5626L151.077 43.715H152.049V37.8616H150.944V41.9471ZM92.2536 40.3584C91.6919 40.1018 91.3694 39.9456 91.2856 39.8892C90.9869 39.7023 90.8371 39.498 90.8371 39.2777C90.8371 39.093 90.9173 38.946 91.0781 38.8356C91.2389 38.7252 91.4615 38.6702 91.7464 38.6702C92.2156 38.6702 92.7534 38.853 93.3595 39.219V38.213C92.8317 37.9285 92.2829 37.786 91.713 37.786C91.1124 37.786 90.6291 37.9322 90.2635 38.2235C89.897 38.5158 89.7142 38.9075 89.7142 39.3991C89.7142 39.7678 89.8283 40.0917 90.056 40.3712C90.2837 40.6506 90.6277 40.8948 91.0886 41.1046C91.4771 41.292 91.7941 41.4523 92.0401 41.5861C92.336 41.757 92.484 41.9773 92.484 42.2486C92.484 42.4465 92.3988 42.6059 92.2284 42.7259C92.058 42.8464 91.8344 42.9064 91.5582 42.9064C91.0048 42.9064 90.4156 42.6462 89.7898 42.1272V43.2413C90.1252 43.4424 90.4271 43.5844 90.6969 43.6669C90.9667 43.7493 91.2883 43.7901 91.6626 43.7901C92.238 43.7901 92.7067 43.6357 93.0686 43.327C93.43 43.0187 93.611 42.6128 93.611 42.1102C93.611 41.7222 93.5047 41.3896 93.2926 41.1129C93.0805 40.8362 92.7341 40.5847 92.2536 40.3584ZM51.5888 41.1756H53.7593V40.2938H51.5888V41.1756ZM58.3749 42.615C58.1793 42.7589 57.8902 42.8308 57.5072 42.8308H56.5309V41.1756H57.5952C57.9222 41.1756 58.1825 41.2476 58.3767 41.3914C58.5709 41.5353 58.6681 41.7318 58.6681 41.9801C58.6681 42.2595 58.57 42.4707 58.3749 42.615ZM56.5309 38.7453H57.3436C57.6038 38.7453 57.8132 38.8122 57.9727 38.9446C58.1316 39.0775 58.2113 39.2566 58.2113 39.4829C58.2113 39.7372 58.1248 39.9355 57.9516 40.078C57.7784 40.2205 57.5425 40.2919 57.2433 40.2919H56.5309V38.7453ZM58.5385 40.5723V40.5219C58.806 40.4019 59.0107 40.2397 59.1519 40.0358C59.2929 39.832 59.3635 39.5961 59.3635 39.3281C59.3635 38.9089 59.1944 38.5593 58.8564 38.2803C58.5182 38.0013 58.0812 37.8616 57.5452 37.8616H55.3998V43.715H57.8508C58.2503 43.715 58.5975 43.6504 58.8921 43.5221C59.1866 43.3938 59.4171 43.2019 59.5834 42.9458C59.7497 42.6906 59.8331 42.4007 59.8331 42.0763C59.8331 41.7107 59.719 41.3914 59.4913 41.1193C59.2636 40.8467 58.9462 40.6644 58.5385 40.5723ZM21.7177 13.1755C18.2406 12.4796 13.4949 12.4718 13.2943 12.4718C13.0941 12.4718 8.34796 12.4796 4.87085 13.1755C1.92609 13.7642 0.304321 15.1706 0.304321 17.1368V18.7599V20.3831C0.304321 22.3488 1.92609 23.7557 4.87085 24.3444C8.34796 25.0398 13.0936 25.0481 13.2943 25.0481C13.3355 25.0481 17.4279 25.0563 20.1097 25.7265C20.6049 25.8502 21.1166 26.2208 21.1166 26.6267V26.8622V27.0977C21.1166 27.5036 20.6049 27.8742 20.1101 27.9979C17.4288 28.6681 13.335 28.6764 13.2943 28.6764C13.2531 28.6764 9.16068 28.6681 6.47885 27.9979C5.98361 27.8742 5.47192 27.5036 5.47192 27.0977V26.8622H0.304321V28.4853C0.304321 30.4511 1.92609 31.858 4.87085 32.4467C8.34793 33.1425 13.0936 33.1503 13.2943 33.1503C13.4944 33.1503 18.2405 33.1425 21.7177 32.4467C24.6624 31.858 26.2842 30.4511 26.2842 28.4853V26.8622V25.2391C26.2842 23.2733 24.6624 21.8664 21.7177 21.2778C18.2405 20.5819 13.4949 20.5741 13.2943 20.5741C13.253 20.5741 9.16068 20.5658 6.47882 19.8956C5.98361 19.7719 5.47189 19.4013 5.47189 18.9954V18.7599V18.5245C5.47189 18.1186 5.98361 17.748 6.47839 17.6243C9.15973 16.954 13.2535 16.9458 13.2943 16.9458C13.3355 16.9458 17.4279 16.954 20.1097 17.6243C20.6049 17.748 21.1166 18.1186 21.1166 18.5245V18.7599H26.2842V17.1368C26.2842 15.1706 24.6624 13.7642 21.7177 13.1755ZM47.5216 41.1674H50.0605V40.2832H47.5216V38.7453H50.1736V37.8616H46.39V43.715H50.2328V42.8308H47.5216V41.1674ZM70.8618 40.3584C70.3001 40.1018 69.9776 39.9456 69.8938 39.8893C69.5951 39.7023 69.4453 39.498 69.4453 39.2777C69.4453 39.093 69.5255 38.946 69.6863 38.8356C69.847 38.7252 70.0697 38.6702 70.3546 38.6702C70.8237 38.6702 71.3616 38.853 71.9677 39.219V38.213C71.4399 37.9285 70.8911 37.786 70.3212 37.786C69.7206 37.786 69.2373 37.9322 68.8713 38.2235C68.5052 38.5158 68.3224 38.9075 68.3224 39.3991C68.3224 39.7678 68.436 40.0917 68.6642 40.3712C68.8919 40.6506 69.236 40.8948 69.6968 41.1046C70.0853 41.292 70.4023 41.4523 70.6478 41.5861C70.9443 41.757 71.0922 41.9774 71.0922 42.2486C71.0922 42.4465 71.007 42.6059 70.8366 42.7259C70.6662 42.8464 70.4426 42.9064 70.1659 42.9064C69.6129 42.9064 69.0238 42.6462 68.398 42.1272V43.2413C68.7329 43.4424 69.0353 43.5844 69.3051 43.6669C69.5745 43.7494 69.8965 43.7901 70.2708 43.7901C70.8462 43.7901 71.3148 43.6357 71.6768 43.327C72.0382 43.0187 72.2192 42.6128 72.2192 42.1102C72.2192 41.7222 72.1129 41.3896 71.9008 41.1129C71.6887 40.8362 71.3423 40.5847 70.8618 40.3584ZM47.3118 13.0843L40.2847 26.8659L33.2178 13.0843H27.4102L37.389 32.5447L31.6547 43.7901H37.4622L53.1194 13.0843H47.3118ZM65.6008 41.1921C65.6008 41.5811 65.5449 41.8844 65.4331 42.1038C65.3213 42.3232 65.1445 42.4964 64.903 42.6233C64.6616 42.7507 64.3675 42.8139 64.0212 42.8139C63.7055 42.8139 63.4288 42.747 63.1915 42.6128C62.9542 42.479 62.7829 42.3086 62.6784 42.102C62.5735 41.8949 62.5208 41.6173 62.5208 41.2682V37.8616H61.3856V41.3809C61.3856 41.8724 61.4905 42.3008 61.6999 42.6654C61.9092 43.0296 62.213 43.3086 62.6111 43.501C63.0092 43.6939 63.4792 43.7901 64.0212 43.7901C64.8843 43.7901 65.5518 43.5785 66.024 43.1556C66.4959 42.7323 66.7323 42.1272 66.7323 41.3392V37.8616H65.6008V41.1921ZM73.8766 43.715H75.0082V37.8616H73.8766V43.715ZM81.4384 41.9471L77.9608 37.8616H76.9676V43.715H78.0739V39.5626L81.5721 43.715H82.5443V37.8616H81.4384V41.9471ZM72.2384 13.1755C68.7462 12.4796 66.2714 12.4718 66.0699 12.4718C65.8779 12.4718 63.6157 12.4805 60.3782 13.0843H55.3234V16.9847C55.3215 17.0356 55.3156 17.0851 55.3156 17.1368V18.7599H55.3234V32.5378H60.4914V18.7599H60.5051V18.5245C60.5051 18.1186 60.8693 17.748 61.2211 17.6243C63.1288 16.954 66.0405 16.9458 66.0699 16.9458C66.0988 16.9458 69.0101 16.954 70.9182 17.6243C71.2677 17.7471 71.6277 18.1126 71.6332 18.5148C71.6332 18.5181 71.6346 18.5213 71.6346 18.5245V18.7599H76.8242V17.1368C76.8242 15.1706 75.1956 13.7642 72.2384 13.1755ZM85.6058 41.1674H88.1447V40.2832H85.6058V38.7453H88.2579V37.8616H84.4743V43.715H88.3165V42.8308H85.6058V41.1674Z" fill="white"/>
</svg>
