<svg width="31" height="30" viewBox="0 0 31 30" fill="none" xmlns="http://www.w3.org/2000/svg">
<path fill-rule="evenodd" clip-rule="evenodd" d="M15.5449 0.0952148C7.31348 0.0952148 0.640137 6.76842 0.640137 15.0001C0.640137 23.2317 7.31348 29.9049 15.5449 29.9049C23.7766 29.9049 30.4497 23.2317 30.4497 15.0001C30.4497 6.76842 23.7766 0.0952148 15.5449 0.0952148ZM24.3594 13.6915C22.6938 13.8162 21.0701 13.2752 19.8198 12.151V18.98C19.8198 22.3116 17.072 25.0182 13.699 25.0182C11.9502 25.0182 10.3679 24.2684 9.24316 23.1024C8.2439 22.02 7.62012 20.5623 7.62012 18.98C7.62012 15.6901 10.2429 12.9836 13.5742 12.9001H13.699C13.9907 12.9001 14.2817 12.9418 14.532 12.9836V16.3152C14.2817 16.2317 13.9907 16.1899 13.699 16.1899C12.1584 16.1899 10.9092 17.4395 10.9092 18.98C10.9092 19.5633 11.0759 20.146 11.4084 20.604C11.9502 21.312 12.7827 21.7701 13.699 21.7701C15.2815 21.7701 16.5303 20.5212 16.5303 18.98V5.86293H19.8198C19.7786 6.98717 20.2366 8.15318 21.0278 9.02752C21.6948 9.77723 22.4851 10.277 23.4021 10.4017C23.6931 10.4852 24.0261 10.4852 24.3594 10.4017V13.6915Z" fill="white"/>
</svg>
