<svg width="190" height="63" viewBox="0 0 190 63" fill="none" xmlns="http://www.w3.org/2000/svg">
<path d="M81.4096 50.5495C81.2723 46.9561 78.7323 45.3775 75.3896 45.3775C72.415 45.3775 69.463 46.8415 69.463 50.1601C69.463 53.1588 72.095 53.9121 74.7043 54.4854C77.3123 55.0588 79.9216 55.4468 79.9216 57.6894C79.9216 60.0481 77.7483 60.6654 75.779 60.6654C73.307 60.6654 71.019 59.4748 71.019 56.7294H68.959C68.959 60.7108 72.0483 62.4961 75.711 62.4961C78.6856 62.4961 82.0963 61.1001 82.0963 57.6214C82.0963 54.4161 79.487 53.5014 76.8776 52.9068C74.2456 52.3108 71.6363 52.0148 71.6363 50.0001C71.6363 47.8708 73.4683 47.2081 75.299 47.2081C77.5416 47.2081 79.0976 48.2148 79.3496 50.5495L81.4096 50.5495ZM83.6069 53.9361C83.6069 58.3774 86.2389 62.4961 91.4336 62.4961C96.6296 62.4961 99.2629 58.3774 99.2629 53.9361C99.2629 49.4961 96.6296 45.3775 91.4336 45.3775C86.2389 45.3775 83.6069 49.4961 83.6069 53.9361ZM85.7816 53.9361C85.7816 50.6401 87.4523 47.2081 91.4336 47.2081C95.4163 47.2081 97.0869 50.6401 97.0869 53.9361C97.0869 57.2321 95.4163 60.6654 91.4336 60.6654C87.4523 60.6654 85.7816 57.2321 85.7816 53.9361ZM101.712 62.1081H103.884V54.6228H111.392V52.7921H103.884V47.5975H112.444V45.7655H101.712V62.1081ZM118.35 62.1081H120.523V47.5975H125.971V45.7655H112.902V47.5975H118.35V62.1081ZM146.708 45.7655H144.532L141.215 59.3601H141.168L137.551 45.7655H135.193L131.532 59.3601H131.488L128.282 45.7655H126.062L130.251 62.1081H132.516L136.292 48.3748H136.339L140.069 62.1081H142.335L146.708 45.7655ZM146.065 62.1081H148.308L150.14 57.1868H157.052L158.836 62.1081H161.24L154.855 45.7655H152.451L146.065 62.1081ZM153.597 47.7348H153.641L156.365 55.3548H150.827L153.597 47.7348ZM164.811 53.2961V47.5975H170.213C172.248 47.5975 173.119 48.7868 173.119 50.3895C173.119 52.7694 171.38 53.2961 169.341 53.2961H164.811ZM162.636 62.1081H164.811V55.1268H170.12C172.225 55.1268 172.615 56.4761 172.844 58.0774C173.164 59.6814 172.821 61.4441 173.439 62.1081H175.865C174.949 60.9854 175.043 59.2001 174.904 57.5988C174.743 55.9961 174.355 54.6001 172.455 54.2348V54.1881C174.423 53.6374 175.292 52.0148 175.292 50.0455C175.292 47.4361 173.393 45.7655 170.327 45.7655H162.636V62.1081ZM178.108 62.1081H189.46V60.2761H180.281V54.6228H188.773V52.7921H180.281V47.5975H189.391V45.7655H178.108V62.1081Z" fill="black"/>
<path d="M0.627319 0.871849L0.657986 61.789H62.8618V0.871849H0.627319Z" fill="#2B2B2A"/>
<path d="M5.36811 32.4206C6.30678 32.4206 7.06411 33.1779 7.06411 34.0859C7.06411 34.9966 6.30678 35.7499 5.36811 35.7499C4.42945 35.7499 3.67212 34.9966 3.67212 34.0859C3.67212 33.1779 4.42945 32.4206 5.36811 32.4206Z" fill="#EE751E"/>
<path d="M9.42477 32.4206C10.3341 32.4206 11.1208 33.1779 11.1208 34.0859C11.1208 34.9966 10.3634 35.7499 9.42477 35.7499C8.48743 35.7499 7.7301 34.9966 7.7301 34.0859C7.7301 33.1779 8.48743 32.4206 9.42477 32.4206Z" fill="#EE751E"/>
<path d="M13.4521 32.4206C14.3907 32.4206 15.1467 33.1779 15.1467 34.0859C15.1467 34.9966 14.3907 35.7499 13.4521 35.7499C12.5441 35.7499 11.7867 34.9966 11.7867 34.0859C11.7867 33.1779 12.5441 32.4206 13.4521 32.4206Z" fill="#EE751E"/>
<path d="M16.8739 34.2982C17.8126 34.2982 18.5686 35.0555 18.5686 35.9635C18.5686 36.8728 17.8126 37.6275 16.8739 37.6275C15.9646 37.6275 15.2086 36.8728 15.2086 35.9635C15.2086 35.0555 15.9646 34.2982 16.8739 34.2982Z" fill="#EE751E"/>
<path d="M16.8739 45.9244C17.8126 45.9244 18.5686 46.6817 18.5686 47.5897C18.5686 48.5004 17.8126 49.2537 16.8739 49.2537C15.9646 49.2537 15.2086 48.5004 15.2086 47.5897C15.2086 46.6817 15.9646 45.9244 16.8739 45.9244Z" fill="#EE751E"/>
<path d="M18.0537 37.9935C18.9924 37.9935 19.7497 38.7495 19.7497 39.6588C19.7497 40.5655 18.9924 41.3228 18.0537 41.3228C17.1457 41.3228 16.3884 40.5655 16.3884 39.6588C16.3884 38.7495 17.1457 37.9935 18.0537 37.9935Z" fill="#EE751E"/>
<path d="M18.0537 49.6197C18.9924 49.6197 19.7497 50.3757 19.7497 51.2851C19.7497 52.1917 18.9924 52.9491 18.0537 52.9491C17.1457 52.9491 16.3884 52.1917 16.3884 51.2851C16.3884 50.3757 17.1457 49.6197 18.0537 49.6197Z" fill="#EE751E"/>
<path d="M16.8739 41.9271C17.8126 41.9271 18.5686 42.6844 18.5686 43.5924C18.5686 44.5031 17.8126 45.2284 16.8739 45.2284C15.9646 45.2284 15.2086 44.5031 15.2086 43.5924C15.2086 42.6844 15.9646 41.9271 16.8739 41.9271Z" fill="#EE751E"/>
<path d="M16.8739 53.5546C17.8126 53.5546 18.5686 54.2826 18.5686 55.22C18.5686 56.1293 17.8126 56.8546 16.8739 56.8546C15.9646 56.8546 15.2086 56.1293 15.2086 55.22C15.2086 54.2826 15.9646 53.5546 16.8739 53.5546Z" fill="#EE751E"/>
<path d="M5.36811 36.2656C6.30678 36.2656 7.06411 36.9936 7.06411 37.9323C7.06411 38.8416 6.30678 39.5696 5.36811 39.5696C4.42945 39.5696 3.67212 38.8416 3.67212 37.9323C3.67212 37.023 4.42945 36.2656 5.36811 36.2656Z" fill="#EE751E"/>
<path d="M5.36811 40.1132C6.30678 40.1132 7.06411 40.8385 7.06411 41.7479C7.06411 42.6545 6.30678 43.4132 5.36811 43.4132C4.42945 43.4132 3.67212 42.6545 3.67212 41.7479C3.67212 40.8385 4.42945 40.1132 5.36811 40.1132Z" fill="#EE751E"/>
<path d="M5.36811 43.9271C6.30678 43.9271 7.06411 44.6817 7.06411 45.5924C7.06411 46.5004 6.30678 47.2564 5.36811 47.2564C4.42945 47.2564 3.67212 46.5004 3.67212 45.5924C3.67212 44.6817 4.42945 43.9271 5.36811 43.9271Z" fill="#EE751E"/>
<path d="M5.36811 47.7721C6.30678 47.7721 7.06411 48.5295 7.06411 49.4375C7.06411 50.3441 6.30678 51.0721 5.36811 51.0721C4.42945 51.0721 3.67212 50.3441 3.67212 49.4375C3.67212 48.5295 4.42945 47.7721 5.36811 47.7721Z" fill="#EE751E"/>
<path d="M5.36811 51.6171C6.30678 51.6171 7.06411 52.345 7.06411 53.2517C7.06411 54.1584 6.30678 54.917 5.36811 54.917C4.46012 54.917 3.67212 54.1584 3.67212 53.2517C3.67212 52.345 4.42945 51.6171 5.36811 51.6171Z" fill="#EE751E"/>
<path d="M5.36811 55.4322C6.30678 55.4322 7.06411 56.1882 7.06411 57.0976C7.06411 58.0069 6.30678 58.7602 5.36811 58.7602C4.46012 58.7602 3.67212 58.0069 3.67212 57.0976C3.67212 56.1882 4.46012 55.4322 5.36811 55.4322Z" fill="#EE751E"/>
<path d="M9.39425 55.4322C10.3036 55.4322 11.0596 56.1882 11.0596 57.0976C11.0596 58.0069 10.3036 58.7602 9.39425 58.7602C8.45558 58.7602 7.69958 58.0069 7.69958 57.0976C7.69958 56.1882 8.45558 55.4322 9.39425 55.4322Z" fill="#EE751E"/>
<path d="M9.39425 44.0169C10.3036 44.0169 11.0596 44.7463 11.0596 45.6823C11.0596 46.5929 10.3036 47.3183 9.39425 47.3183C8.45558 47.3183 7.69958 46.5929 7.69958 45.6823C7.69958 44.7463 8.45558 44.0169 9.39425 44.0169Z" fill="#EE751E"/>
<path d="M13.3916 55.4322C14.3302 55.4322 15.0875 56.1882 15.0875 57.0976C15.0875 58.0069 14.3302 58.7602 13.3916 58.7602C12.4529 58.7602 11.6956 58.0069 11.6956 57.0976C11.6956 56.1882 12.4529 55.4322 13.3916 55.4322Z" fill="#EE751E"/>
<path d="M13.3916 44.0169C14.3302 44.0169 15.0875 44.7463 15.0875 45.6823C15.0875 46.5929 14.3302 47.3183 13.3916 47.3183C12.4529 47.3183 11.6956 46.5929 11.6956 45.6823C11.6956 44.7463 12.4529 44.0169 13.3916 44.0169Z" fill="#EE751E"/>
<path d="M29.1962 40.2031H23.8669L21.2216 58.7497H26.4909L27.7895 50.4977L30.3749 58.7577H34.4629L37.1775 50.5071L38.3282 58.7577H43.7468L41.0948 40.2031L35.7615 40.1924L32.4682 50.5071" fill="#EE751E"/>
<path d="M46.8785 32.5768C53.9932 32.5768 59.8678 38.6755 59.8678 45.6408C59.8678 52.6328 55.0838 58.7301 47.9679 58.7301L44.9772 56.1008L47.9679 52.9795C51.8438 52.9795 53.9932 49.4541 53.9932 45.6408C53.9932 41.8848 50.8452 38.3875 46.9999 38.3275H23.7879L20.3679 35.3902L23.7879 32.5768L46.8785 32.5768Z" fill="#EE751E"/>
<path d="M74.5424 33.1562H77.5878C78.7358 33.1562 79.2878 33.6642 79.2878 34.5908C79.2878 35.8055 78.4051 36.0922 77.3891 36.0922H74.5424V33.1562ZM69.6931 39.8388H78.6251C81.4038 39.8388 84.1371 38.2082 84.1371 35.0548C84.1371 32.7388 82.8144 31.6135 81.4038 31.1295C82.5718 30.4895 83.3437 29.6295 83.3437 28.0388C83.3437 26.4295 82.4611 24.0935 78.3171 24.0935H69.6931V39.8388ZM74.5424 27.8402H77.1024C78.0958 27.8402 78.7584 28.1282 78.7584 28.9228C78.7584 29.9388 78.1184 30.2255 77.1024 30.2255H74.5424V27.8402ZM100.801 24.0935H95.9517V32.6735C95.9517 34.2842 95.9517 36.2922 93.6557 36.2922C91.2944 36.2922 91.2944 34.2842 91.2944 32.6735V24.0935H86.4451V33.7548C86.4451 38.1202 88.8251 40.2148 93.6344 40.2148C98.4424 40.2148 100.801 38.1202 100.801 33.7548V24.0935ZM102.86 34.5482C102.904 39.5748 107.996 40.2148 109.785 40.2148C113.292 40.2148 117.062 38.8922 117.062 34.7922C117.062 31.9002 114.857 30.8628 112.63 30.2455C110.402 29.6282 108.15 29.3855 108.064 28.2602C108.064 27.3775 109.144 27.2002 109.805 27.2002C110.292 27.2002 110.845 27.3108 111.241 27.5975C111.638 27.8628 111.904 28.2602 111.814 28.8548H116.401C116.268 25.0189 113.248 23.7189 109.828 23.7189C106.585 23.7189 103.477 25.2842 103.477 28.9215C103.477 32.0988 106.321 32.7828 108.813 33.4882C111.528 34.2615 112.212 34.4815 112.212 35.2975C112.212 36.4668 110.997 36.7322 110.202 36.7322C109.298 36.7322 108.238 36.5335 107.885 35.5842C107.776 35.2975 107.709 34.9455 107.709 34.5482H102.86ZM119.357 39.8388H124.206V24.0935H119.357V39.8388ZM127.345 39.8388H131.929V31.2402H131.973L136.806 39.8388H141.524V24.0935H136.938V32.5175H136.896L132.305 24.0935H127.345V39.8388ZM144.708 39.8388H157.982V35.8055H149.557V33.8402H156.99V30.0935H149.557V28.1282H157.74V24.0935H144.708V39.8388ZM159.836 34.5482C159.88 39.5748 164.973 40.2148 166.76 40.2148C170.268 40.2148 174.038 38.8922 174.038 34.7922C174.038 31.9002 171.833 30.8628 169.606 30.2455C167.378 29.6282 165.126 29.3855 165.038 28.2602C165.038 27.3775 166.121 27.2002 166.784 27.2002C167.268 27.2002 167.82 27.3108 168.217 27.5975C168.614 27.8628 168.88 28.2602 168.792 28.8548H173.376C173.244 25.0189 170.224 23.7189 166.805 23.7189C163.562 23.7189 160.454 25.2842 160.454 28.9215C160.454 32.0988 163.297 32.7828 165.79 33.4882C168.504 34.2615 169.188 34.4815 169.188 35.2975C169.188 36.4668 167.974 36.7322 167.181 36.7322C166.274 36.7322 165.216 36.5335 164.862 35.5842C164.752 35.2975 164.685 34.9455 164.685 34.5482H159.836ZM175.402 34.5482C175.445 39.5748 180.538 40.2148 182.325 40.2148C185.833 40.2148 189.603 38.8922 189.603 34.7922C189.603 31.9002 187.399 30.8628 185.172 30.2455C182.944 29.6282 180.692 29.3855 180.604 28.2602C180.604 27.3775 181.685 27.2002 182.348 27.2002C182.833 27.2002 183.385 27.3108 183.784 27.5975C184.181 27.8628 184.445 28.2602 184.357 28.8548H188.941C188.809 25.0189 185.79 23.7189 182.37 23.7189C179.126 23.7189 176.018 25.2842 176.018 28.9215C176.018 32.0988 178.862 32.7828 181.354 33.4882C184.07 34.2615 184.753 34.4815 184.753 35.2975C184.753 36.4668 183.54 36.7322 182.745 36.7322C181.841 36.7322 180.781 36.5335 180.428 35.5842C180.317 35.2975 180.25 34.9455 180.25 34.5482H175.402Z" fill="#EE751E"/>
</svg>
